<svg id="Layer_1" data-name="Layer 1" xmlns="http://www.w3.org/2000/svg" xmlns:xlink="http://www.w3.org/1999/xlink" viewBox="0 0 600 350"><defs><style>.cls-1{fill:none;}.cls-2{clip-path:url(#clip-path);}.cls-3{fill:#c54545;}</style><clipPath id="clip-path"><rect class="cls-1" width="600" height="350"/></clipPath></defs><title>Artboard 1</title><g class="cls-2"><path class="cls-3" d="M585.56,213.65c-2-4.14-3.83-8.4-6.1-12.39-5.17-9.11-10.66-18-15.85-27.13-6.37-11.17-12.5-22.47-18.83-33.66-5.94-10.49-12.07-20.88-18-31.37s-11.91-21.22-17.84-31.84c-4-7.11-7.58-14.46-12-21.3-5-7.81-10.23-15.6-18-21.12-5-3.57-10.46-5.6-16.74-4.32-7.91,1.61-15.9,2.92-23.7,5C433.61,36.74,429,39.1,424.35,41a183.15,183.15,0,0,1-37,10.67c-9.57,1.64-18.79.79-27.1-4.8a22.27,22.27,0,0,1-4-3.52c-6-6.63-9-14.71-11.23-23.23-1.74-6.57-1.19-13.36-2.49-19.81-1.08-5.35-.29-10.1.89-15a107.24,107.24,0,0,1,4.08-12.65c2.39-6.32,7.82-9.78,13.62-11.89a37.73,37.73,0,0,1,29,1c6,2.7,11.79,6,17.7,9a62,62,0,0,0-1.76-8.42c-1.87-5.39-3.64-11-7.57-15.27a24.64,24.64,0,0,0-17-8.23A48.9,48.9,0,0,0,355.65-56c-9.18,4.61-16,12-18.92,22.3-.49,1.69-1.54,3.22-2,4.92q-2.1,8.73-3.89,17.53c-.53,2.56-.71,5.19-1.13,7.77A5.45,5.45,0,0,1,328.9-1c-.79,1-1.92.95-2.09-.43-.33-2.61-.81-5.34-.38-7.87.84-4.88,2.19-9.67,3.47-14.46s2.4-9.58,4.11-14.17c2.74-7.38,7.91-12.87,14.49-17.16,7.46-4.86,15.76-6.94,24.43-8.27,5.61-.86,11,.07,16.33,1.15,2.44.49,4.7,1.93,7.46,3.12.37-5.38.83-10.48,1-15.6.36-8.34.5-16.69.88-25,.22-4.87-3.56-8-7.75-9.48-7.91-2.71-15.73-2-23.33-.15-5.38,1.28-10.31,4.49-15.39,6.95-2.55,1.23-5,2.71-7.47,4.07l-.74-1c1.75-1.55,3.31-3.44,5.29-4.59,4.43-2.56,9-4.81,13.64-7a15.92,15.92,0,0,1,4.58-1.24c9.39-1.38,18.64-1.66,27.82,1.8a6.43,6.43,0,0,0,7.7-1.91c5.45-6.63,11.55-12.74,17.15-19.26,2.27-2.64,3.93-5.81,6.11-9.09-3.5,1.35-6.61,2.52-9.7,3.73-8.7,3.44-17.86,4.46-27.08,5.38-8.39.84-16.86,1.56-25,3.43-5.14,1.17-10,4.1-14.68,6.68-11.39,6.23-20.5,15.08-28,25.57-3.35,4.65-7.2,9.08-9.65,14.18s-5.07,10.06-5.8,15.81c-.48,3.85-1.67,7.6-2.3,11.44a29,29,0,0,0-.21,6.29c.13,2.28-.92,4.44-2.76,4.46-2.18,0-2.79-1.26-3.27-3.5-3.08-14.4-5.65-29-13.68-41.79a125,125,0,0,0-14.91-18.7c-7.29-7.78-16.36-11.84-26-15.36-5.8-2.11-11.21-5.3-16.92-7.68-4.73-2-9.7-3.34-14.48-5.22-11.31-4.44-22.56-9-33.83-13.55-.64-.26-1.29-.49-2.45-.92,1.51,3.56,2.69,6.78,4.22,9.82,3.12,6.18,6.38,12.28,9.71,18.35a3.57,3.57,0,0,0,2.45,1.46c3.86.4,7.77.39,11.62.89,3.35.44,6.64,1.4,10,2.06,2.4.48,4.94.49,7.21,1.31,5.6,2,11.09,4.36,16.6,6.63a7.68,7.68,0,0,1,1.89,1.45,5.26,5.26,0,0,1,.67,1c-2.19,1.15-3.89-.15-5.61-.75-6.44-2.22-12.74-5-19.31-6.66-6.11-1.55-12.5-2.09-18.8-2.81-3.57-.41-4.25.36-4.09,4,.12,2.65.75,5.29.82,7.94s-.47,5.5-.34,8.23c.2,4.15.82,8.27,1.13,12.42.41,5.39.81,10.79,1,16.19.07,2,.78,2.36,2.59,2.17,8.35-.89,16.71-2.16,25.08-2.28,4.53-.07,9.07,2,13.65,2.89,5,.92,8,4.88,12.08,7.23A48.37,48.37,0,0,1,255-54.3a119.5,119.5,0,0,1,8.71,8.4,134.29,134.29,0,0,1,9.07,10c2.49,3.16,4.49,6.71,6.67,10.12,1.19,1.87,2.35,3.77,3.41,5.71.34.62.92,1.45.51,2.15a2.92,2.92,0,0,1-3-.59,17.26,17.26,0,0,1-3.49-5.59c-1.7-5.42-5.75-9.12-9.13-13.28-3.52-4.33-7.44-8.35-11.22-12.47a11.85,11.85,0,0,0-2.38-2.06c-4.66-2.92-9.25-6-14.08-8.61a48,48,0,0,0-26.14-5.89c-5,.3-9.85,1.3-14.8,1.71-5.28.44-7.64,3.91-9.18,8.28-1.15,3.24-1.93,6.61-3.09,9.84-1.25,3.47-2.74,6.85-4.12,10.28a14,14,0,0,0-.36,1.43,16.31,16.31,0,0,0,2.09-.72c5.83-3,11.57-6.23,17.48-9.09a29.86,29.86,0,0,1,15.19-3.2c3,.2,6-.09,9,.07,8,.43,15.53,2.08,22.09,7.06,2.9,2.2,6.61,3.53,9,6.13a63.46,63.46,0,0,1,9.67,13.17,107.5,107.5,0,0,1,11.45,36.35c1.18,8.89-1.56,17.16-6.6,24.63-1.73,2.57-3.2,5.32-4.72,8C262.41,55.8,255.15,60,246,61.4c-2.36.36-4.75.6-7.07,1.12-6,1.36-11.75-.06-17.5-1.76-3.31-1-6.79-1.35-10.09-2.33-4.41-1.31-8.74-2.9-13.07-4.45-9-3.24-16.42-9.07-23.59-15.16a65.82,65.82,0,0,0-17.26-10.9,12.29,12.29,0,0,0-11.23.79c-6.37,3.48-11.21,8.59-15.45,14.24-5.55,7.4-10.87,15-16,22.68s-9.89,15.55-15,23.24c-3,4.63-6.54,9-9.52,13.63S84.45,112,81.91,117c-3.39,6.61-6.29,13.48-9.71,20.07-1.68,3.23-4.15,6-6.12,9.15-1.62,2.55-3,5.24-4.52,7.85-.4.68-1,1.21-1.4,1.9-.58,1.11-1,2.29-1.52,3.43a16.82,16.82,0,0,1-1,1.81c-4.71,7.68-9.52,15.3-14.12,23-3.85,6.47-7.5,13.08-11.19,19.64q-3.2,5.68-6.28,11.43c-4.32,8.05-8.51,16.17-12.93,24.17C9.94,245.25,6.62,251,3.06,256.63-2.2,264.93-7.79,273-13.08,281.3c-3.52,5.51-6.78,11.19-10.1,16.83a23.22,23.22,0,0,0-1.24,3c5.33,2.18,9.68.35,14-2.32,5.24-3.21,7.54-8.78,11.12-13.31,2.3-2.91,4.34-6,6.42-9.09a29.44,29.44,0,0,0,1.73-3.28c4.65-9.16,9.26-18.33,14-27.45.36-.7,1.61-1.55,2.16-1.38a2.81,2.81,0,0,1,1.54,2.16,17.35,17.35,0,0,1-.68,5.9c-3,8.28-5.82,16.6-9.33,24.65-1.89,4.33-4.83,8.27-7.63,12.13a142.88,142.88,0,0,1-9.4,11.44c-1.41,1.57-3.43,2.6-5.12,3.94a12.23,12.23,0,0,0-1.48,1.78c5,1.31,9.27,1.6,13.68-.88,8.29-4.66,14.06-11.66,19.57-19.18s9.32-15.89,13.14-24.28c2.06-4.52,4.2-9,6.33-13.48a11.74,11.74,0,0,1,1-1.49c4.12,2.32,5.6,5.78,3.87,9.79-2,4.56-4.29,9-6.42,13.46a49.56,49.56,0,0,0-2.24,5.08c-2.89,8.38-8.39,15.17-13.44,22.23-1,1.33-1.75,2.77-3,4.85a32.8,32.8,0,0,0,5.11-.47c7.53-2.06,14.93-4.54,21.2-9.39a21.52,21.52,0,0,0,4.7-5c3.67-5.51,7.76-10.77,9.71-17.3,1.41-4.72,3.16-9.36,5-13.94a60.27,60.27,0,0,1,3.64-7.08c1.37-2.46,2.87-4.85,4.3-7.26,3.83,2.1,4.65,5.15,2.51,8.63-3.31,5.38-6.37,10.82-6.84,17.39-.11,1.55-1.79,2.93-2.45,4.52-1.69,4.1-3,8.38-4.88,12.39-1.42,3-3.54,5.69-5.27,8.56a15.87,15.87,0,0,0-1,2.56,24.18,24.18,0,0,0,2.63-.13,23.88,23.88,0,0,0,10.21-4.58c3.06-2.18,6.64-3.63,9.84-5.63a6.61,6.61,0,0,0,2.84-3.27c1-3.42,4.17-5.19,5.59-8.26s3.15-5.68,4.72-8.52c1.69-3.06,3.47-6.09,5-9.24a31.68,31.68,0,0,0,1.49-5.27c2.93,1.86,3.35,4.42,3.21,7.23-.22,4.28-3.89,6.65-4.8,10.41-.58,2.42-1.21,4.84-1.9,7.58,5.4.11,9.6-1.93,13.76-4.35,6.92-4,11.71-9.84,15.22-16.93s7.47-14.14,10.89-21.36c1.73-3.65,2.69-7.67,4-11.52a5.1,5.1,0,0,1,3.77,5.6c-1.93,12.71-8.76,23.27-14.84,34.16-1,1.77-2.3,3.35-3.46,5-1.31,1.89-1.73,3.44,0,5.68,2.11,2.78,4.15,5.32,7.69,6a10.53,10.53,0,0,0,4.28.21c4.2-1,5.76,0,7.48,4a12.79,12.79,0,0,0,7.73,7.27A64.37,64.37,0,0,0,167,292.35c4.21.6,7.6-1.57,11-3.62a11.88,11.88,0,0,1,4.87-1.39c.54-.05,1.2,1.31,1.82,2s1.31,2,2.13,2.18c4.49.8,8.91,2.47,13.61,1.22a69.94,69.94,0,0,0,11.86-4.37c4-1.88,6.7-5.18,10.47-7.17,1.55-.82,2.32-3.06,3.6-4.51a48.48,48.48,0,0,1,3.94-3.53c.82,1.91,1.34,3.39,2.07,4.76s1.44,3.35,2.72,4.25a14.85,14.85,0,0,0,11.63,2.52c4.94-.83,9.6-1.82,13.65-5,2.5-1.94,5.4-3.39,7.75-5.48,1.54-1.37,2.3-3.59,3.65-5.23s2.76-4.16,6.14-2.76c.09-1.12.19-2,.23-3q.77-17.94,1.53-35.88a356.8,356.8,0,0,0-1-47.88c-.57-6.1-.82-6.25,4.55-8.8a21.94,21.94,0,0,1,7.62-2,172.26,172.26,0,0,1,19.38-.71,43,43,0,0,1,20.57,5.7c2.59,1.54,5.25,3,7.75,4.64a11.9,11.9,0,0,1,5.6,9.27c.31,4.68.87,9.54,0,14.05-.69,3.42-3.17,6.68-5.47,9.5-2,2.42-4.88,4.06-7.26,6.17a3,3,0,0,0-.84,2.21c.46,5.37,1.11,10.73,1.59,16.1.67,7.5,1.25,15,1.85,22.52.3,3.78.31,7.61.89,11.34a5.81,5.81,0,0,0,4.28,4.92c3.84,1.22,7.61,2.27,12.18,1.45-1.83-2.84-3.52-5.34-5.05-7.93-.64-1.09-2.13-2.32-.43-3.68,1.49-1.19,3.11-1.86,4.72-.15a6.06,6.06,0,0,1,1,1.27c4.07,7.62,11.13,10.89,18.87,13.49,5.56,1.87,10.74,2.08,15.89-.89a5.05,5.05,0,0,0,.67-.43,3.08,3.08,0,0,0,.39-.54L382,272.52c2.41-2.09,7.3-2.36,9.77-.69a6.3,6.3,0,0,1,.62.5c6.33,5.56,13.53,5.43,20.78,2.61,6.67-2.59,9.84-8.32,11.53-14.93.2-.79-.41-1.8-.65-2.73,2.66-2.35,4.46-2.56,7.65-.86a8.16,8.16,0,0,0,11-2.89c4.56-6.79,6.28-14.17,4.55-22.27-.37-1.73-.37-3.54-.73-5.27s.92-2.25,2-2.07c2.93.52,6.17.34,7.4,4.38.74,2.43,2.71,4.48,4.47,6.5-1.52-3.92-3-7.87-4.58-11.76-.91-2.19.08-2.91,2-3.22,3.82-.63,5.23.28,6.92,3.7,5.15,10.39,10.13,20.87,15.73,31A82.68,82.68,0,0,0,500.3,279a38.13,38.13,0,0,0,16,8.21c6.7,1.44,13.13-.33,19.6-3.63-11.89-16.56-23.51-33-30.07-52.21,3.4-1.57,6-.67,7.57,2,3.68,6.33,7.61,12.52,11.18,18.91,6.38,11.43,14.59,21.55,22.63,31.77,6.95,8.84,15.81,14.61,27.71,14.46,3.88,0,7.78.69,11.66,1.18a6.34,6.34,0,0,1,2,1.05,16.24,16.24,0,0,1-1.74,1.76,3.06,3.06,0,0,1-1.51.48c-13.94,1.33-27.43.51-39-8.6a34.45,34.45,0,0,1-5.14-5c-1.58-1.89-3-1.59-5.08-.83a98.05,98.05,0,0,1-13.47,3.93c-6.63,1.39-12.63-1.21-18.45-3.93-12.39-5.79-21.57-15.12-28.73-26.58-2.87-4.59-5.52-9.31-8.3-14a4.34,4.34,0,0,0-1.22-1.37c-2.56-1.72-5.17-3.38-8-5.21a12.47,12.47,0,0,0-1,2.16c-2.52,9.72-10,14.7-18.22,18.9-1.32.67-3.17.21-4.68.61a4.61,4.61,0,0,0-2.77,1.76c-5.7,10.89-15.28,16.56-27.71,16.14a30.18,30.18,0,0,1-3.2-.15c-4.87-.69-9.34.29-13.93,2.14-10,4-19.84,3-29-2.77-2.67-1.66-5.22-.25-7.32.53-3.73,1.4-6.85,1.23-10.07-.87a20.23,20.23,0,0,0-2.92-1.19,42.88,42.88,0,0,0,0,5.77c.9,6.24,2.16,12.43,2.92,18.69,1,7.88,1.49,15.8,2.32,23.69.57,5.43,1.45,10.83,1.94,16.27.28,3.13-.18,6.34.11,9.47.61,6.55,1.47,13.08,2.3,19.61.27,2.13,1.37,4.33,1.06,6.34-.68,4.41.82,8.6.68,13a12.39,12.39,0,0,0,6.47,11.74c3,1.74,5.78,4,8.71,6a12.53,12.53,0,0,0,2.67,1.16,103.19,103.19,0,0,1,24.35,12.93,50.82,50.82,0,0,0,6.41,3.69c3.58,1.84,5,5.43,7,8.53a1.94,1.94,0,0,1-.26,1.89,2.73,2.73,0,0,1-2.27.49c-3.95-1.8-8.06-3.39-11.66-5.75-7.63-5-14.92-10.54-22.47-15.67-4.14-2.81-8.53-5.24-13.32-8.15.61,3.31,1.36,5.64,3.89,7.24a13.41,13.41,0,0,1,3.22,3.49c4.21,5.68,8.51,11.3,12.49,17.14,4.43,6.51,8.58,13.2,12.73,19.9.5.81.24,2.11.33,3.18-1.15-.47-2.69-.63-3.39-1.48-3.89-4.71-7.59-9.58-11.34-14.42-4.68-6-9.37-12.06-14-18.13-2.41-3.17-4.59-6.51-7-9.64a22,22,0,0,0-3.49-3l-.82.55c.69,2.15,1.41,4.29,2.05,6.45,1.39,4.64,2.68,9.32,4.14,13.94.72,2.27,1.79,4.43,2.57,6.68,1.09,3.18,2,6.41,3.06,9.6,1.33,4,2.78,8,4.07,12a11,11,0,0,1,.48,3.64,2.22,2.22,0,0,1-3.5,2,6.62,6.62,0,0,1-2.71-3.1c-1.34-4-2.27-8.2-3.48-12.29-2.26-7.66-4.64-15.29-6.9-23-1.3-4.43-2.42-8.91-3.73-13.34a46.22,46.22,0,0,0-2-4.64c-2.93,2-5.52,3.61-8,5.38s-4.53,3.64-7,5.12a5.58,5.58,0,0,1-4,.45c-1.85-.55-2.14-2.49-.62-3.7,2.87-2.3,5.94-4.34,8.86-6.58s6-4.71,8.91-7.22c.46-.4.27-1.65.24-2.5-.06-2.05.19-4.22-.39-6.13-.87-2.83,1.45-6.47-2.38-8.3,2.24-2.54,1.84-5.55-.29-7.9a8.22,8.22,0,0,1-1.46-4.09c-1.63-10.24-3.28-20.47-4.68-30.74-1-7-1.49-14.14-2.26-21.21-.52-4.73-1.25-9.44-1.65-14.17-.32-3.85-.2-7.73-.47-11.59-.11-1.54-.87-3-1.09-4.56-.51-3.7-1.39-7.46-1.17-11.13.29-4.73-1.22-9.21-1-13.92a133,133,0,0,0-.45-14.65c-.29-4.79-.84-9.56-1.24-14.35-.44-5.31-.94-10.62-1.23-15.94-.14-2.54-1.16-3.17-3.55-2.69q-7.82,1.6-15.71,2.88a17.47,17.47,0,0,1-4.77,0c-1.91-.22-2.69.66-2.67,2.36.06,5.74.31,11.49.28,17.23-.06,9.54-.3,19.08-.41,28.63,0,1.58.64,3.3.21,4.72-2.08,6.76-.84,13.56-.66,20.35.25,9.26.65,18.51.82,27.77.13,6.57-.07,13.14,0,19.71,0,2.2.82,4.43.66,6.6-.38,5-1.17,10.06-1.72,15.1a17.35,17.35,0,0,0,.12,2.91,11.55,11.55,0,0,1,.16,2.63c-.68,3.77-.92,7.51.31,11.22a6.29,6.29,0,0,1,0,1.59c.37,7.09.74,14.17,1.13,21.72,8.43-1.12,15.93,1.62,23.76,3.38-1.39,3.32-3.78,3.34-6.22,3.21-5.74-.31-11.49-.6-17.22-1-2.12-.14-3.21.56-3.65,2.76-1.78,8.88-3.69,17.74-5.59,26.59-2,9.46-4.06,18.93-6.23,28.36-.19.84-1.53,2.07-2.18,2a4,4,0,0,1-2.48-2.08,5.27,5.27,0,0,1,0-3.1c2.46-12.37,5-24.73,7.45-37.11.86-4.38,1.48-8.8,2.21-13.21l-.63-.28c-.9,1.16-1.86,2.27-2.69,3.48-2.91,4.24-5.65,8.59-8.68,12.75-3.54,4.87-7.19,9.67-11,14.32-2.13,2.6-4.7,4.83-7.06,7.24-1.11,1.13-2.14,2.65-4,1.38-1.43-1-1.48-3.66-.1-5.25s3.16-2.94,4.33-4.69c4.48-6.71,8.79-13.54,13.16-20.32l7.29-11.28a11.4,11.4,0,0,0-2.37.42c-4.67,2.11-9.31,4.3-14,6.4-2.34,1.06-4.75,2-7.1,3-3.09,1.34-6.12,2.86-9.26,4.06-3.37,1.29-4.6.4-5.12-3.65,7.43-3.44,15-6.82,22.45-10.44,6.38-3.1,12.65-6.42,18.91-9.76a3.22,3.22,0,0,0,1.34-2.32c.25-4.86.33-9.72.46-14.58a6.43,6.43,0,0,1,.08-1.84c1.4-4.07.49-8.13.09-12.21-.31-3.21-1.25-6.29-.08-9.7.82-2.38.26-5.27.16-7.92-.16-4.16-.54-8.3-.66-12.46-.17-5.84-.16-11.68-.3-17.52-.08-3.29-.46-6.57-.44-9.85,0-4.54.43-9.09.45-13.63,0-4.89-.22-9.77-.32-14.66-.08-3.67-.11-7.35-.18-11,0-.76-.13-1.51-.19-2.27l-.8-.32-5.2,8c-2.82-1.08-2.71,2.35-4.32,3.48-2.4,1.69-4.71,3.66-7.36,4.82-2.44,1.07-5.3,1.15-8,1.78-8.1,1.91-14.19-2.51-20.35-6.53-1.46-1-2.11-1.57-3.22.38-.67,1.18-2.19,1.89-3.36,2.75a25.76,25.76,0,0,0-2.78,1.86c-7.81,7.53-16.89,10.78-27.71,8.5-4-.83-8.12-.74-11.76-2.93a2.36,2.36,0,0,0-2.18.31c-3.13,2.91-7,2.54-10.58,2a56,56,0,0,1-13.23-3.59,29.54,29.54,0,0,1-8.14-5.74c-2.07-1.89-3.91-3.53-6.91-4-5.91-.88-10.49-4.12-14.16-8.88-3-3.91-3.09-3.54-7.07-.74-2.88,2-6.58,2.91-9.4,5-3.7,2.74-7.77,3.27-12,3.23-3.2,0-5,1.69-6.22,4.14a16.13,16.13,0,0,1-10.3,8.39,26.26,26.26,0,0,0-6.36,3.29c-5.44,3.54-11.11,5-17.39,2.52-2.28-.9-4.1-.34-6.1,1.18a31.59,31.59,0,0,1-7,3.62,55.7,55.7,0,0,1-8.25,2.86c-4.25,1-8.46.83-12.14-2-2.4-1.81-4.13-.64-6.37.68-3.62,2.13-7.06,4.46-11.34,5.75-3.51,1.05-5.85-.3-8.57-1A33,33,0,0,1-9,309c-3.14-1.78-6.41-1.67-9.59-1.09a12.13,12.13,0,0,1-8.16-1.4c-1.56-.81-3.05-1.74-4.72-2.7.09-6.07,4.86-10,7.44-14.95,1-1.9,2.1-3.73,3.1-5.62a216.63,216.63,0,0,1,12.88-21.3C-4.21,256.3-1.34,250,2,244.06q7.51-13.45,15-26.89c.73-1.31,1.3-2.71,2-4,3.87-7.1,7.62-14.28,11.7-21.25,3-5.09,6.45-9.89,9.64-14.87,3.31-5.16,6.63-10.31,9.77-15.57,3.34-5.59,6.53-11.27,9.66-17,3.64-6.66,7.1-13.42,10.72-20.09Q77.2,112.14,84,100c1.68-3,3.61-5.83,5.42-8.74,0-.08.08-.18.14-.22,7-5,9.17-13.25,13.74-19.89,3.48-5.06,7.26-9.92,10.79-14.95,2.22-3.16,4.16-6.52,6.35-9.71,5.22-7.57,10.73-14.92,18.1-20.59,6.9-5.32,14.18-4.54,21.58-1.09,7.88,3.67,14.5,9.08,21.12,14.61a58.51,58.51,0,0,0,20.7,11.23c10.8,3.26,21.58,6.84,33,7.13,7.78.2,15.24-1.53,21.19-7.07a41.24,41.24,0,0,0,9-12.68c2-4.25,3.75-8.64,5.61-13,.88-2.05.22-6.16.22-6.16s-.64-4.42-.73-6.78C269.73-.27,265-11.21,258.62-21.42c-8.28-13.35-20.85-20.42-36.28-22.52-7.85-1.07-15.34-.24-22.28,4.11-4.26,2.67-9,4.65-13.18,7.38-2,1.28-3.45,3.5-4.87,5.48-1.55,2.15-2.75,4.55-4.15,6.82-1.73,2.8-3.49,2.92-6.1.88-6.38-5-11.08-11.39-15.53-18.06-3.24-4.86-6.78-9.52-10.38-14.12a17,17,0,0,1-4-10.28c-.47-11.25-1.37-22.49-2.33-33.72a46.56,46.56,0,0,0-2.06-9.35c-1.15-3.81-.19-6.76,2.09-10,5.95-8.49,13.52-16.06,16.25-26.5,1.7-6.52,6.88-10.89,9.84-16.63.89-1.72,4.19-2,6.35-.91,6.21,3,12.32,6.33,18.65,9.08,6.49,2.82,13.2,5.15,19.83,7.63,7.76,2.9,16,4.57,23.16,9,2,1.24,4.5,1.63,6.67,2.64,9.44,4.37,19,8.51,28.2,13.33,6.71,3.52,11.64,9.23,15.45,15.82a39.17,39.17,0,0,0,2.78,4.54c5.14,6.62,7.52,14.39,9.59,22.32,1,3.66,2.16,7.25,3.25,10.87l.73.05c.61-1.74,1.2-3.47,1.83-5.2,3.63-10.11,9.49-18.9,15.5-27.74,6.76-10,15.39-17.91,24.72-25.09,4.69-3.61,10.62-5.59,15.92-8.43,9.26-5,19.55-5,29.56-6.44,9-1.31,18.18-2.15,27-4.36,5.71-1.43,10.91-4.92,16.29-7.58.74-.36,1.14-1.36,1.82-1.88a21.59,21.59,0,0,1,3.64-2.39c1.36-.66,2.06,0,2.32,1.5,1.54,8.91,2.86,17.88,4.86,26.68A72.55,72.55,0,0,0,449-110.61c.84,1.83,2.73,3.21,4.26,4.68,1.35,1.29,1.58,2.31,1,4.35a80.57,80.57,0,0,0-2.67,14.08c-.85,8-1.3,16.08-1.89,24.13-.35,4.67-.63,9.34-1,14a2.74,2.74,0,0,1-.72,1.62C442.3-42.26,436.61-36.85,431-31.35c-3.84,3.77-7.57,7.65-11.32,11.51-.55.57-1.52,1.77-1.52,1.77l-3.39,3s-.85.85-1.11,1.17c-1.14,1.35-2.35,1.07-3.49.1a19.33,19.33,0,0,1-3.66-3.47C403-22.34,398-25.54,392.77-28.37c-6.38-3.47-12.85-6.93-20.37-7.45-8.07-.55-13.92,3.2-18.34,9.53-1,1.4-1.14,3.33-1.88,4.93A48.47,48.47,0,0,0,347.65,1c.14,3.93.19,8.15,1.65,11.68,3.63,8.78,4.9,18.64,11.44,26.15,5.92,6.8,13.43,10.09,22.35,9.34,13.6-1.15,26.41-5.51,38.82-11a138,138,0,0,1,36.19-10.49c7.61-1.08,15.24-1.71,22.4,2a28.5,28.5,0,0,1,5.71,4.21c4.61,4.11,9.19,8.19,12.38,13.69,2.64,4.54,6.09,8.6,9,13,3.73,5.75,7.24,11.64,10.83,17.48,2.17,3.53,4.41,7,6.44,10.65,3.37,6,6.62,12.08,9.86,18.16q7.66,14.35,15.25,28.73c5.29,10,10.49,20,15.92,29.95,2.48,4.53,5.48,8.78,8.12,13.23q5.12,8.64,10,17.41c4.73,8.49,9.85,16.81,13.93,25.6a449,449,0,0,0,23.94,45.7c3.8,6.2,8,12.13,12,18.18q3.39,5.08,6.81,10.14a8.45,8.45,0,0,0,1.38,1.61c2.13,1.87,2.07,3.06.11,5.12-3.87,4.07-8.43,3.73-13.32,2.54-9.88-2.42-17.13-8.35-22.67-16.6-5.79-8.63-11.47-17.33-17.15-26q-9-13.83-18-27.72c-1-1.48-1.72-3.07-2.56-4.58,2.62-3,7-2.89,9.07.22,7.2,10.77,14.31,21.59,21.57,32.32,6.35,9.39,12.77,18.73,19.34,28a23.47,23.47,0,0,0,12.55,9,31.27,31.27,0,0,0-1.73-4.56c-5.61-9.48-11.44-18.83-16.91-28.38C608,258,603.82,250,599.77,242.05c-4.57-9-8.88-18.14-13.32-27.21a8.44,8.44,0,0,0-.95-1.27ZM411.68-64.9l-.07-.07c.23.52.32,1.32.72,1.53A73.32,73.32,0,0,0,421-59.12c2.88,1.08,6,1.53,9,2.36,3.64,1,7.25,2.11,11.14,3.25l4.24-50.18-31.17,2.53-.14-.78c5-1.64,10.27-1.75,15.56-2,5.48-.24,10.94-.82,16.9-1.29-8.42-10.32-10.79-22.08-12.6-34.4-1.17,1.19-1.88,2-2.65,2.69-3.07,2.85-3.41,3.91-1.78,7.7,2.55,5.92,5.28,11.77,7.84,17.69.72,1.65,1.13,3.43,1.68,5.15l-.67.66c-.8-.35-2.06-.49-2.34-1.08-2.38-5-4.58-10.17-6.84-15.26-1-2.29-2.05-4.57-3.36-7.5-3.81,4.26-7,8-10.46,11.6-1.15,1.2-1.45,2.26-.52,3.46,1.83,2.36,3.88,4.54,5.69,6.92.45.58.31,1.61.44,2.44-.92-.23-2.17-.16-2.71-.74-2.25-2.45-4.29-5.1-6.41-7.68-4.07,3.23-4.07,3.23-.88,7.32.11.14.32.25.35.39.08.48.27,1.29.1,1.38a2,2,0,0,1-1.6.18c-1-.6-1.71-1.58-2.7-2.14a3.11,3.11,0,0,0-2.43-.39,2.82,2.82,0,0,0-.92,2.18c0,2.39.25,4.79.26,7.18,0,9.93,0,19.86,0,29.79a70.78,70.78,0,0,0,1.87-8c1.14-5.19,2.33-10.36,3.64-15.51a10.13,10.13,0,0,1,1.72-2.67l1,.48c-.83,3.48-1.81,6.92-2.44,10.43-.87,4.78-1.5,9.6-2.17,14.41-.24,1.77.38,4-2.67,3.83-.36,0-1.07.8-1.08,1.24-.07,2.7,0,5.41.07,8.11,0,.21.28.42.43.62l2.07-.6c1.43,1.94-2.24,4.26,1.2,6l4.47-5.07.69.21a8.2,8.2,0,0,1-.43,2.79,14.56,14.56,0,0,1-2.76,3.56c-1.51,1.41-1.22,2.47.3,3.81.89-.79,1.8-1.47,2.56-2.3,1.85-2,3.59-4.14,5.48-6.12.38-.4,1.22-.35,1.85-.51-.08.69.08,1.57-.29,2-2.26,2.81-4.5,5.65-7,8.21-2,2-1.36,3.64-.07,5.65a8.26,8.26,0,0,0,1.24-.86c4.38-4.61,8.73-9.24,13.14-13.82a8.67,8.67,0,0,1,2.08-1.2c-.1.77.06,1.72-.34,2.26a52.32,52.32,0,0,1-3.92,4.58c-3.07,3.3-6,6.76-9.35,9.77-2,1.76-1.78,3.05-.76,4.64,2-1.76,4-3.29,5.68-5.1,3.79-4,7.45-8.15,11.12-12.27,1-1.16,1.88-1.41,2.87,0-1.9,2.31-2.23,5.74-5.84,6.39-.68.12-1.13,1.51-1.7,2.3a10,10,0,0,1-1.28,1.68c-3.08,2.76-6.19,5.47-9.29,8.21-1.32,1.16-.94,2.26-.09,3.21,4.4-3.73,8.88-7.15,12.91-11s7.72-8.36,11.9-13c-7-2.07-13.73-4.11-20.53-6.08-4-1.17-7.79-2.71-10.89-6.22ZM167.47-150.84a10.6,10.6,0,0,1-1,1.55c-3.79,3.83-5.06,9-7.22,13.68a97,97,0,0,1-10.7,18c-1.39,1.83-2.8,3.65-4.21,5.48l.42.71c2.77-.33,5.53-.79,8.31-.94a26.92,26.92,0,0,1,7.59.21,57.79,57.79,0,0,0,16,1.86,8.56,8.56,0,0,1,3.44,1,1.5,1.5,0,0,1,.43,1.37,1.52,1.52,0,0,1-1.13.88,78.62,78.62,0,0,1-9.18-.24c-5-.6-10-1.75-15-2.23a92.7,92.7,0,0,0-11.28,0c-1.31,0-1.8.75-1.4,2.17a46.17,46.17,0,0,1,1.65,7.26c1.2,10.92,2.22,21.87,3.36,32.8.25,2.37.69,4.71,1.08,7.26,1.74-.6,2.72-1,3.74-1.27,5.14-1.4,10.3-2.72,15.42-4.18,2-.56,2.68-1.94,2.34-4.11-.52-3.23-.78-6.52-1-9.79-.33-4.13-.49-8.27-.82-12.39-.1-1.22-.68-2.41-.69-3.62,0-.52.86-1,1.34-1.57a6.08,6.08,0,0,1,1.24,1.53c.2.53-.08,1.23,0,1.84.63,6.26,1.25,12.52,2,18.77.31,2.77.83,5.52,1.31,8.63,2.82-1.31,4.89-1.92,7.36.28a21.49,21.49,0,0,1-2.79.95c-1.11.2-2.28.11-3.38.35C169-63.32,163.33-62,157.7-60.68c-1.75.41-3.49.87-5.21,1.38-.88.26-2.18.52-2.41,1.12s.28,1.87.81,2.58c3.31,4.46,6.75,8.82,10.08,13.27,3.57,4.77,7,9.65,10.67,14.36.68.87,2.09,1.17,3.16,1.73-.28-1.18-.23-2.6-.89-3.5-5.17-7-10.51-13.94-15.71-20.94-1.56-2.1-2.87-4.38-4.29-6.58l.47-.62c.87.38,2,.54,2.57,1.19,1.86,2.11,3.59,4.35,5.25,6.62,3.54,4.81,7,9.69,10.53,14.49a54.06,54.06,0,0,0,3.71,4c1.2-4.43-1.55-6.64-3.42-9.15-3.48-4.68-7.08-9.28-10.53-14-.31-.42.18-1.44.31-2.18.79.27,1.91.29,2.33.84,3.77,5,7.4,10.11,11.11,15.15A11.57,11.57,0,0,0,178-39.26l.78-.3c0-1.29.46-2.85-.09-3.83-1.3-2.27-3.16-4.2-4.66-6.36-2.41-3.45-4.71-7-7-10.47l.82-.89a8.7,8.7,0,0,1,2.44,1.57c3.06,4,6,8.13,9,12.13.46.61,1.5.77,2.27,1.14.1-1,.65-2.35.22-3.05-1.57-2.55-3.51-4.88-5.24-7.34-.83-1.18-1.51-2.46-2.27-3.71,2-1.26,3-.86,4,.83A75.82,75.82,0,0,0,183-53.16c2.79-4-1.14-5.73-2.3-8.41,2.73-1.51,3.26,2.22,5.6,1.92.86-2.11,2.44-4.32,2.56-6.61a142.56,142.56,0,0,0-.36-16.17c-.61-9.53-1.43-19-2.18-28.55-.16-2,.05-4.23-.68-6a113.64,113.64,0,0,0-5.23-10.47q-5-9.37-10.06-18.69C169.57-147.6,168.64-148.94,167.47-150.84ZM291.47,178c.17,1.47.27,2.25.34,3,.35,3.88.85,7.75,1,11.63.21,5.22.18,10.45.18,15.68,0,1.86.82,2.4,2.61,2.39,10.37,0,20.57-1.13,29.91-6,4-2.08,8.51-3.86,9.56-9.23,1.47-7.51.87-12.62-4.92-15.25A33.67,33.67,0,0,0,319,177c-6.15-.45-12.38,0-18.57.26C297.53,177.36,294.66,177.75,291.47,178Z"/><path class="cls-3" d="M397.35,57.09c4.39-.53,8.5-1.22,12.63-1.45,2.35-.13,2.66,2.4,3.2,4,3.9,11.12,7.47,22.36,11.45,33.46,3.22,9,6.87,17.85,10.33,26.76a10.75,10.75,0,0,0,.68,1.17,4.67,4.67,0,0,0,.56-1c1.64-9.81,3.42-19.61,4.83-29.45,1.6-11.14,2.84-22.34,4.27-33.51.46-3.58,1.06-7.15,1.47-10.73.26-2.29,2-2.45,3.64-2.78,1.84-.37,2.91.58,3.35,2.24,1.1,4.11,2.06,8.25,3.21,12.35,2.05,7.34,4.1,14.68,6.34,22,4.11,13.41,8.34,26.78,12.53,40.16.17.55.45,1.07,1,2.36.38-1.65.65-2.53.77-3.44,1.36-10.12,2.68-20.24,4.06-30.36.87-6.42,1.86-12.82,2.71-19.25.39-3,.64-6,.82-9,.15-2.4,1.23-3.4,3.6-3.09,1.89.25,3.79.45,6,.71,2.95,10.48-.13,21-1.81,31.53-.88,5.52-1.51,11.1-2.69,16.55-2.12,9.78-4.57,19.48-6.88,29.21a2.44,2.44,0,0,0-.19.77c1,7.44-5.23,9.57-9.69,12.89-2,1.46-4.92.24-6.05-2.53-2-4.85-4-9.72-5.46-14.73-3.55-11.82-6.82-23.72-10.21-35.59a9.5,9.5,0,0,0-1.27-3c-.36,2.61-.74,5.21-1.07,7.82-1.16,9.15-2.4,18.3-3.42,27.47-.56,5-.74,10.08-1.12,15.11-.22,2.92-.34,5.86-.82,8.74a5.73,5.73,0,0,1-7.84,4.19c-1.64-.63-3.28-1.28-4.88-2-4.92-2.27-5.57-7.34-7.18-11.6-3.69-9.81-7.3-19.66-10.41-29.66-5.45-17.53-10.5-35.18-15.71-52.78C397.81,59.44,397.62,58.32,397.35,57.09Z"/><path class="cls-3" d="M220.34,133.7c-.7-5.09-1.42-10.17-2.09-15.26-.91-6.93-1.78-13.87-2.68-20.8-.85-6.58-1.74-13.16-2.58-19.75-.27-2.1-.55-4.21-.61-6.33-.06-2.41,2-2.48,3.59-2.61,1.35-.12,2.76.65,4.15.67,2.38,0,4.77-.24,7.15-.29,1.86,0,3,.56,2.83,2.82-.64,11.82.35,23.58,1.63,35.31q2.28,20.91,4.89,41.79c.64,5.1,1.75,10.14,2.8,15.18.33,1.58,0,2.55-1.39,3.27a50.07,50.07,0,0,1-4.94,2.59c-4.53,1.68-6.09,1-8.36-3.17-3.28-6.09-6.48-12.22-9.75-18.32-5.2-9.69-10.45-19.36-15.61-29.07-3.37-6.34-6.49-12.81-10-19.09-2.16-3.9-4.76-7.56-7.16-11.33l-1,.22c0,5.28,0,10.56,0,15.83q.06,21.43.13,42.86c0,5.78,0,11.56.1,17.33,0,1.5-.49,2.24-2.09,2.38-3.62.32-7.22.87-10.84,1.22-3.18.3-3.45-.08-3.45-3.29,0-11.8-.22-23.6,0-35.39.23-11.61,1.09-23.21,1.32-34.83.23-11.87.06-23.75,0-35.62,0-1.57.27-2.27,2-2.31,2.83-.07,5.66-.5,8.48-.41a4,4,0,0,1,2.82,1.79c3.72,6.64,7.4,13.31,10.81,20.11,2.4,4.78,4.35,9.78,6.55,14.66.43,1,1.12,1.79,1.61,2.72,2,3.87,4,7.79,6.12,11.63,1.39,2.53,3,4.94,4.45,7.43s2.9,5.24,4.41,7.83c2,3.49,4.12,6.95,6.18,10.42Z"/><path class="cls-3" d="M145.59,104.56c-5.31-.68-10.29-1.31-15.27-2-2-.27-3.16.75-4,2.35-2,3.55-3.87,7.14-5.95,10.63-2.45,4.1-5.23,8-7.58,12.17-3.34,5.93-6.4,12-9.62,18-1.68,3.13-3.17,6.41-5.3,9.2-.83,1.08-3.4,1.67-4.85,1.27A80.68,80.68,0,0,1,81.78,152,8.17,8.17,0,0,1,79,149.33a2,2,0,0,1,.15-1.88c5.79-6.83,9.44-14.93,13.6-22.73,3.26-6.1,6.55-12.19,10-18.21,4.46-7.88,9-15.7,13.6-23.52,6.33-10.88,12.93-21.61,18.92-32.68,2.16-4,5.14-6.82,8.71-9.74l13.8,5.12c-2.61,7-1.84,13.73-2.39,20.28-.72,8.64-1.35,17.29-1.75,25.95-.26,5.83-.12,11.68,0,17.52q.23,14.89.62,29.77c.19,7,.48,14,.83,21,.09,1.84.66,3.66.85,5.5.22,2.11-.71,3.08-3,2.94-6-.39-7.81-2.49-7.75-8.59s-.47-12.39-.39-18.59c.11-8.24.6-16.47.84-24.71C145.68,113,145.59,109.15,145.59,104.56Zm1.27-37.8-.8-.44-15.67,30.9c4.89,1,9,1.75,13.18,2.58,1.92.38,2.45-.43,2.51-2.28.18-6.2.58-12.4.77-18.6C147,74.87,146.86,70.82,146.86,66.76Z"/><path class="cls-3" d="M211.25,217.62a36.06,36.06,0,0,0,4.38,4c5,3.33,7.91,8.44,11,13.18a15.88,15.88,0,0,1,2,13.38c-1.41,5-2.91,9.86-5.76,14.1-3,4.42-6.14,8.77-11.55,10.87-5.94,2.31-11.52,5.74-17.61,7.41-4.25,1.17-9.09.31-13.66.13-3.46-.14-6.89-.83-10.35-.94-5.59-.19-9.85-2.85-13.56-6.69-2.51-2.6-2-6-1.81-9.07.61-8.88,1.54-17.74,2.41-26.6.53-5.37,1.3-10.72,1.77-16.09.54-6.19.56-12.44,1.38-18.59,1-7.72,2.74-15.34,4-23,.52-3.27,1.68-4.38,5.36-4.35,4,0,7.91-1.77,11.9-2.59,8.28-1.7,16.62-1.63,24.21,2.2,4.66,2.35,9.64,5.47,12.54,9.6,4.18,6,6.94,16.32,1.53,23.75C217.06,211.51,214.14,214.34,211.25,217.62Zm-44,54.48.83-.24c1.26.35,2.56,1.1,3.77,1,5.53-.58,11.22.82,16.63-1.31a11.88,11.88,0,0,1,3.74-1.22,30.74,30.74,0,0,0,13.28-4c7-3.64,13.31-7.94,13.15-17.5-.12-7-.28-13.77-3.71-20.15-2.51-4.66-7.29-8.53-14.3-6.17a54.06,54.06,0,0,1-7.85,2.37c-6.86,1.19-13.77,2.1-21.09,3.18Zm41.67-77.2c-.19-4.93-1.67-9.42-6.17-11.92A22.69,22.69,0,0,0,188.89,180a29.94,29.94,0,0,1-5.81.15c-2.13-.17-3.77.48-4.6,2.39a30.57,30.57,0,0,0-2.66,7.47c-1.13,7.71-1.93,15.48-2.78,23.23-.38,3.51,0,4.12,3.43,3.85,8.73-.69,17.37-2,24.13-8.3C204.65,205,209.21,201.41,208.89,194.9Z"/><path class="cls-3" d="M432.84,216.24c.9,11.12-3.28,20.67-9.69,29.33-1.67,2.26-4.45,3.78-6.91,5.35-5.37,3.42-10.68,7-16.35,9.88a79,79,0,0,1-31.21,8.05,13.31,13.31,0,0,0-1.32.16c-5.12.83-5.89-.06-6.4-5.23-.71-7.05-2.16-14-2.82-21.09-1.42-15.11-2.48-30.26-3.8-45.38-.67-7.68-1.62-15.33-2.33-23a2.79,2.79,0,0,1,1.16-2.27,18.49,18.49,0,0,1,4.57-1.28c4.27-.79,8.57-1.44,12.85-2.22,6.5-1.18,13-1.76,19.52-.25.84.19,1.79-.09,2.64.08,2.75.55,5.48,1.17,8.21,1.84.76.19,1.43.85,2.19.95,5.86.77,10.19,4.54,14.64,7.8,6.13,4.49,9.79,11.07,11.91,18.17,1.83,6.15,2.56,12.62,3.78,19ZM375,257.31c2.74-.63,4.73-1,6.66-1.55a117.51,117.51,0,0,0,11.38-3.53c4.72-1.9,9.76-3.56,13.76-6.55,8.64-6.45,13.58-15.86,17.25-25.74,3.19-8.59,2.27-16.9-4.49-23.71-4.4-4.44-9.13-8.54-13.76-12.74-3.28-3-7.38-4.08-11.61-4.89-8.2-1.58-16.25-.73-24.27,1.26-2.38.59-3.42,1.63-2.95,4.28.7,3.9,1,7.87,1.51,11.81.29,2.45.41,4.93.85,7.36.23,1.25,1.32,2.37,1.44,3.61.45,4.63.73,9.28,1,13.93.16,3.34-.17,6.73.26,10,.8,6.14,2.11,12.21,3,18.34C375.29,251.61,375,254.11,375,257.31Z"/><path class="cls-3" d="M306,149.08c-.88-10.17-1.85-20.34-2.59-30.52-.44-6.11-.46-12.24-.73-18.36-.22-5-.32-10.12-.86-15.13-1.11-10.3-2.48-20.57-3.75-30.86-.19-1.56,1.71-3.28,3.57-3.16q8,.5,15.91,1a40.43,40.43,0,0,1,18.65,5.72c7.51,4.58,13.51,16.31,11.89,24.95-.7,3.72-2.69,7.29-4.56,10.67-1,1.87-1.53,3.3-.76,5.41,4.39,12,8.75,24,12.89,36.1,2.49,7.29,4.57,14.73,6.81,22.11.6,2-.14,2.85-2.18,2.69a6.2,6.2,0,0,1-6-4.79c-3.64-11.89-7.15-23.83-11-35.67-1.68-5.23-3.92-10.29-5.92-15.41-.55-1.41-1.32-1.9-3.05-1.51a126,126,0,0,1-13.07,2.27c-2.72.32-3.75,1.47-3.49,4.11.49,5.12,1,10.25,1.34,15.38.51,7.61.83,15.23,1.34,22.84.29,4.33.8,8.65,1.25,13,.24,2.27-.82,3.22-3,2.84-3.75-.67-7.51-1.36-11.19-2.3a3.08,3.08,0,0,1-1.64-2.31c-.2-3-.08-6-.08-9Zm14.68-89.54v-.09c-2.12,0-4.26-.09-6.37.06-.6,0-1.64.76-1.66,1.2-.12,3.15-.79,6.57.16,9.42,2.11,6.33,2.63,12.75,2.89,19.29.09,2.38.45,4.75.74,7.11.19,1.61,1,2.39,2.7,1.81,3.18-1,6.62-1.57,9.53-3.12a19.37,19.37,0,0,0,10.62-15c.77-5.23-1.24-9.69-3.5-13.86-1.71-3.15-3.85-6.81-8.46-6.84C325.09,59.53,322.88,59.54,320.66,59.54Z"/><path class="cls-3" d="M237.09,66.71c8-1.31,16-2.47,24.23-1.24,7.91,1.17,14.21,5.31,20.13,10.07a22.14,22.14,0,0,1,5.66,7.86c2.57,5.5,4.67,11.22,6.78,16.92,1.9,5.15,3.28,10.5,3,16-.52,11.26-1,22.55-8,32.26-3.38,4.72-5.69,10.3-10.55,13.8-2.94,2.11-6.29,3.64-9.41,5.52-6.35,3.83-12.73,2-19,0-.91-.29-1.78-1.94-2-3.08-.89-5.52-1.61-11.06-2.25-16.61-1.49-12.85-3.07-25.7-4.3-38.57-1.12-11.75-1.77-23.54-2.75-35.3A66.19,66.19,0,0,0,237.09,66.71Zm26.15,95.72c2.64-1.77,5.29-2.74,6.71-4.64,4.23-5.64,8-11.62,11.9-17.51,1.36-2.05,2.94-4.1,3.69-6.39,3.22-9.87,1.46-19.84.27-29.8-.74-6.21-3.52-11.64-5.86-17.29-2.81-6.79-6.45-12.35-14.22-14-2.33-.5-4.52-1.6-6.83-2.22-2.47-.67-5-1.11-7.71-1.7C253,100.57,257.85,131.06,263.23,162.44Z"/><path class="cls-3" d="M414.75,153.82a53.56,53.56,0,0,1-19,4.24c-3.71.18-7.39,1-11.1,1.19a108.06,108.06,0,0,1-11.68,0c-3.9-.21-4.72-1.22-5.65-5.05-5.72-23.68-9.3-47.74-12.62-71.85-.59-4.29-1.76-8.5-2.67-12.75-.29-1.36-.61-2.72-.93-4.1L389,55.84c.64.54.84.63.89.77,3.09,8.44,2,7.58-5,9.92a118.46,118.46,0,0,1-15,3.49c-2.77.54-3.44,1.92-2.75,4.47a62.25,62.25,0,0,1,1.47,6.77c.28,1.83,1,2.35,2.84,1.88,6.27-1.59,12.61-2.93,18.87-4.56,1.71-.45,2.79-.09,3.55,1.33,1.07,2,2,4.11,3.17,6.46-4.47,1.54-8.64,3-12.8,4.42-3.83,1.35-7.68,2.64-11.41,4.22a3.25,3.25,0,0,0-1.18,2.75c.73,5.62,1.63,11.22,2.56,16.82,1.44,8.66,2.83,17.34,4.48,26a70,70,0,0,0,3,9.84,2.25,2.25,0,0,0,1.87,1c6.24-.67,12.48-1.4,18.7-2.26a62.38,62.38,0,0,0,6.46-1.56c2.1-.52,3.66,0,4.42,2.18C413.68,151,414.19,152.34,414.75,153.82Z"/><path class="cls-3" d="M258.49,179.08c0,3-.05,5.57,0,8.13.3,12.07.1,24.18,1.08,36.19,1.18,14.45,1.42,28.88,1.43,43.34,0,2.22-.27,3.4-2.91,3.5-3.81.15-7.62,1.53-11.29-.78a4.17,4.17,0,0,1-2.38-3.93c-.43-16.57-1.15-33.14-1.67-49.71-.37-11.61-.53-23.22-.88-34.83-.07-2.23.94-3.14,2.93-3C249.31,178.27,253.78,178.7,258.49,179.08Z"/><path class="cls-3" d="M424.89,162.27c3.55-1.9,4.76-1.4,6.44,1.8.88,1.68,2.43,3,3.44,4.64,2.69,4.37,5.22,8.84,7.85,13.25,2.26,3.79,4.64,7.53,6.85,11.35a52.74,52.74,0,0,0,13.38,15.57,24.55,24.55,0,0,0,20.25,4.95c3.44-.64,4-2.71,1.94-5.47a215.8,215.8,0,0,1-20.37-32.41c-2.52-5-5.5-9.74-8.06-14.71-.67-1.3-2.73-3-.19-4.52a4.52,4.52,0,0,1,6.35,1.3c2.05,3.1,3.86,6.37,5.83,9.53q8.42,13.55,16.89,27.07c2,3.15,3.56,6.61,5.93,9.41,4,4.75,7.57,10,13.15,13.29,3.6,2.11,13.16,3.92,17.87.71,1.17-.8,1.86-2.26,2.9-3.3a9.41,9.41,0,0,1,2-1.22c.27.76.84,1.56.74,2.28-.4,3.08-2.23,5-5.1,6.2-12,5.19-22.08.61-31.57-6.38-1.38-1-2.19-1.29-3.62-.37-7.09,4.53-14.59,4.29-22.27,1.78-11-3.59-18.21-11.49-23.65-21.16-5.22-9.27-10-18.79-14.92-28.23A51.66,51.66,0,0,1,424.89,162.27Z"/><path class="cls-3" d="M45.15,230.58c4.19,2.47,8.57,3.78,13.11,2.73a29.44,29.44,0,0,0,8.88-3.77C72.27,226.29,77.5,223,82,219c8.75-7.8,14.46-17.8,19.1-28.48,3-7,5.86-14.19,9.91-20.59a92.66,92.66,0,0,0,9.06-19.76,57.21,57.21,0,0,0,1.44-6.37c2.79,1.07,4.6,3.53,4,6.7A82.08,82.08,0,0,1,121.86,163c-1.93,5.23-4.09,10.38-6.39,15.46-5,11.07-10,22.18-15.38,33.06-2.74,5.5-7,10-11.32,14.49a67,67,0,0,1-14.94,11.79c-5,2.88-10.37,6.14-16.89,5.22-5.9-.84-10.33-6-11.93-10.92A4.51,4.51,0,0,1,45.15,230.58Z"/><path class="cls-3" d="M585.5,213.58c-1.16.7-2.26,1.83-3.5,2-4.51.75-8.69-.68-12.4-3a162.24,162.24,0,0,1-14.11-10,35.8,35.8,0,0,1-6.29-7.11c-5.13-7.1-10.24-14.21-15-21.54-2.37-3.63-4-7.72-6-11.63-3.18-6.46-6.42-12.9-9.44-19.44-3.83-8.3-7.41-16.7-11.18-25-1.85-4.1-3.87-8.12-5.79-12.12,4.22-2.69,7.28-1.85,9.39,2.06,2.52,4.68,5.43,9.17,7.68,14,2.78,5.92,5,12.11,7.6,18.12,1.32,3,3.1,5.83,4.49,8.82,1,2.22,1.76,4.58,2.69,6.85.29.71,1,1.28,1.17,2,2.12,7.3,6.5,13.45,10.3,19.85,2.55,4.3,5.95,8.1,9.08,12a95.35,95.35,0,0,0,8.42,9.84c2.59,2.46,4.92,5.5,8.73,6.39a2.67,2.67,0,0,1,.94.49c4.1,3.08,8.23,6.12,13.28,7.53Z"/><path class="cls-3" d="M606.86,305.53c-6.19-.37-11.27-3-16.09-6.05-8.06-5.19-14.16-12.3-19.34-20.29-2.46-3.8-5.3-7.37-7.52-11.3-5.22-9.26-10.21-18.65-15.22-28-1.08-2-1.77-4.26-2.73-6.35-.64-1.39-.19-2.25,1.14-2.67a11.53,11.53,0,0,1,4.1-.94c1.1.09,2.75.86,3.09,1.74,4.11,10.67,10.37,20.16,16.09,29.94,2.57,4.4,5.6,8.52,8.39,12.79,1.17,1.78,2.17,3.67,3.41,5.4a70.76,70.76,0,0,0,21.29,19.79c1.74,1,3.77,3,6.25.84.34-.3,1.73.14,2.24.64a2.11,2.11,0,0,1-.29,2A46.23,46.23,0,0,1,606.86,305.53Z"/><path class="cls-3" d="M89.88,235.87c2.42.93,4.13,2.18,5.78,2.11A63.47,63.47,0,0,0,108,236.35c5.63-1.4,10.05-4.7,13.74-9.39,6.53-8.28,11.9-16.93,13.44-27.64.61-4.27,2.16-8.4,3.15-12.62.61-2.58.92-5.22,1.47-7.82.15-.71.63-1.9,1-1.91a3.36,3.36,0,0,1,2.29,1c3,3.21,2.83,7.12,1.94,11-1.36,6-2.92,11.85-4.4,17.78-1,4-1.63,8.17-3.08,12-2.53,6.72-7.14,12.19-11.77,17.58a49.32,49.32,0,0,1-3.79,4.41c-3.54,3.24-7.92,4.44-12.59,4.93a17.09,17.09,0,0,0-4.29,1.23c-4.24,1.65-9.43.75-11.55-2.58C92,241.93,91.24,239.1,89.88,235.87Z"/><path class="cls-3" d="M552,219.61c-10.78-2.43-20.32-5.55-27.31-13.67-3.78-4.39-7.9-8.44-10.16-14.07-1.52-3.78-4.57-6.92-6.4-10.61-2.94-5.91-5.38-12.07-8.13-18.07-1.76-3.85-3.94-7.52-5.51-11.44a128.3,128.3,0,0,1-4.07-12.58,2.49,2.49,0,0,1,1.1-2.19,8.32,8.32,0,0,1,3.37.25c.23,0,.39.56.55.88,2.68,5.14,5.41,10.25,8,15.43,2.9,5.78,5.72,11.62,8.52,17.45,2.14,4.45,3.86,9.14,6.37,13.36,3,5.1,6.75,9.81,10.13,14.72,5.75,8.35,14,12.95,23.49,15.73,1.15.34,2.7-.54,4-1a29.35,29.35,0,0,0,2.81-1.21c-.18,1.28.09,3.18-.64,3.73A38.9,38.9,0,0,1,552,219.61Z"/><path class="cls-3" d="M89.92,164.57c-.7,1.38-1.35,2.79-2.09,4.15C86.6,171,85.38,173.2,84,175.38c-.78,1.27-1.85,2.37-2.64,3.64-1,1.6-1.77,3.33-2.75,4.93s-2.29,3.06-3.18,4.74c-2,3.73-3.46,7.76-5.71,11.3a118.2,118.2,0,0,1-10.12,13.92,169.46,169.46,0,0,1-13.38,13.52,26.73,26.73,0,0,1-14.13,6.77,3.3,3.3,0,0,1-2.36-.78,6.39,6.39,0,0,1-2-7.22,3,3,0,0,1,2.09-1.69,23.3,23.3,0,0,0,11.46-4.4c7.14-4.9,13-11.06,18.55-17.52a75.32,75.32,0,0,0,10.95-17c2.51-5.35,5.73-10.37,8.63-15.54,1.38-2.46,2.66-5,4.2-7.34.56-.86,1.8-1.91,2.63-1.84C88.17,161,89.54,162.88,89.92,164.57Z"/></g></svg>